<?xml version="1.0" encoding="UTF-8" standalone="no"?>
<!DOCTYPE svg PUBLIC "-//W3C//DTD SVG 1.1//EN" "http://www.w3.org/Graphics/SVG/1.1/DTD/svg11.dtd">
<svg version="1.1" xmlns="http://www.w3.org/2000/svg" xmlns:xlink="http://www.w3.org/1999/xlink"
     preserveAspectRatio="xMidYMid meet" viewBox="0 0 640 640" width="640" height="640">
  <g>
    <g>
      <g>
        <path d="M461.6 487.8L545.06 622.81L630.71 489.18L577.11 488.74L578.27 346.29L516.23 345.79L515.07 488.23L461.6 487.8Z"></path>
      </g>
      <g>
        <path d="M325.15 41.05L325.22 41.05L325.28 41.05L325.34 41.05L325.41 41.05L325.47 41.06L325.53 41.06L325.59 41.06L325.66 41.07L325.72 41.07L325.78 41.08L325.84 41.08L325.9 41.09L325.97 41.09L326.03 41.1L326.09 41.11L326.15 41.11L326.21 41.12L326.28 41.13L326.34 41.14L326.4 41.14L326.46 41.15L326.52 41.16L326.58 41.17L326.65 41.18L326.71 41.19L326.77 41.2L326.83 41.21L326.89 41.22L326.95 41.24L327.01 41.25L327.07 41.26L327.13 41.27L327.19 41.28L327.25 41.3L327.31 41.31L327.37 41.32L327.44 41.34L327.5 41.35L327.51 41.36L327.52 41.36L327.54 41.36L327.55 41.37L327.57 41.37L327.58 41.38L327.6 41.38L327.61 41.39L327.63 41.39L327.64 41.4L327.66 41.4L327.67 41.41L327.7 41.42L327.71 41.42L327.75 41.44L327.78 41.45L327.83 41.46L327.84 41.47L327.87 41.48L327.88 41.48L327.9 41.49L327.91 41.49L327.92 41.5L327.94 41.5L327.95 41.5L327.97 41.51L327.98 41.51L328 41.52L328.01 41.52L328.03 41.53L328.04 41.53L328.06 41.54L328.07 41.54L328.13 41.56L328.18 41.57L328.24 41.59L328.29 41.61L328.35 41.63L328.4 41.64L328.45 41.66L328.51 41.68L328.56 41.7L328.62 41.72L328.67 41.74L328.73 41.76L328.78 41.78L328.83 41.8L328.89 41.82L328.94 41.84L328.99 41.87L329.05 41.89L329.1 41.91L329.15 41.93L329.21 41.95L329.26 41.98L329.31 42L329.37 42.02L329.42 42.05L329.47 42.07L329.52 42.1L329.58 42.12L329.63 42.14L329.68 42.17L329.73 42.19L329.78 42.22L329.83 42.25L329.89 42.27L329.94 42.3L329.99 42.32L330.04 42.35L330.09 42.38L330.14 42.4L330.19 42.43L330.21 42.44L330.26 42.47L330.3 42.49L330.33 42.51L330.37 42.53L330.39 42.54L330.41 42.55L330.42 42.56L330.46 42.58L330.48 42.59L330.51 42.61L330.53 42.62L330.55 42.63L330.56 42.64L330.58 42.65L330.6 42.66L330.62 42.67L330.63 42.68L330.65 42.69L330.67 42.71L330.69 42.72L330.7 42.73L330.72 42.74L330.74 42.75L330.76 42.76L330.77 42.77L330.79 42.78L330.81 42.79L330.83 42.8L330.84 42.82L330.86 42.83L330.88 42.84L330.89 42.85L330.95 42.89L331.01 42.93L331.07 42.97L331.13 43L331.18 43.04L331.24 43.08L331.3 43.12L331.35 43.16L331.41 43.2L331.47 43.24L331.52 43.29L331.58 43.33L331.64 43.37L331.69 43.41L331.75 43.45L331.8 43.5L331.86 43.54L331.91 43.58L331.97 43.63L332.02 43.67L332.07 43.72L332.13 43.76L332.18 43.81L332.23 43.85L332.29 43.9L332.34 43.95L332.39 43.99L332.44 44.04L332.49 44.09L332.54 44.14L332.59 44.19L332.64 44.24L332.69 44.29L332.74 44.34L332.79 44.39L332.84 44.44L332.89 44.49L332.94 44.54L332.99 44.59L333.03 44.65L333.04 44.65L333.04 44.65L333.04 44.66L333.05 44.66L333.05 44.66L333.05 44.67L333.06 44.67L333.07 44.68L333.08 44.69L333.09 44.69L333.09 44.7L333.1 44.7L333.11 44.71L333.11 44.72L333.12 44.72L438.78 165.41L438.9 165.56L439.03 165.71L439.15 165.86L439.27 166.01L439.38 166.17L439.49 166.32L439.6 166.48L439.7 166.64L439.8 166.81L439.9 166.97L439.99 167.13L440.08 167.3L440.17 167.47L440.26 167.64L440.34 167.81L440.41 167.98L440.49 168.15L440.56 168.33L440.63 168.5L440.69 168.68L440.75 168.86L440.81 169.03L440.86 169.21L440.92 169.39L440.96 169.57L441.01 169.76L441.05 169.94L441.09 170.12L441.13 170.31L441.16 170.49L441.19 170.68L441.22 170.86L441.24 171.05L441.26 171.24L441.28 171.42L441.3 171.61L441.31 171.8L441.32 171.99L441.32 172.18L441.33 172.37L441.33 172.4L441.33 172.43L441.34 172.46L441.35 172.52L441.36 172.64L441.37 172.67L441.37 172.7L441.37 172.73L441.38 172.76L441.38 172.79L441.39 172.82L441.39 172.85L441.39 172.88L441.4 172.91L441.4 172.94L441.4 172.97L441.41 173L441.41 173.03L441.41 173.06L441.42 173.09L441.42 173.12L441.42 173.15L441.42 173.18L441.43 173.21L441.43 173.24L441.43 173.27L441.43 173.3L441.43 173.33L441.44 173.36L441.44 173.39L441.44 173.42L441.44 173.45L441.44 173.48L441.44 173.51L441.44 173.54L441.44 173.57L441.44 237.06L454.6 237.06L455.86 237.09L457.12 237.16L458.36 237.29L459.58 237.46L460.79 237.69L461.98 237.95L463.15 238.27L464.3 238.63L465.44 239.03L466.55 239.47L467.64 239.96L468.71 240.49L469.76 241.06L470.77 241.66L471.77 242.31L472.74 242.99L473.67 243.7L474.58 244.45L475.46 245.24L476.31 246.06L477.13 246.9L477.92 247.78L478.67 248.69L479.38 249.63L480.07 250.6L480.71 251.59L481.32 252.61L481.88 253.66L482.41 254.73L482.9 255.82L483.34 256.93L483.75 258.07L484.1 259.22L484.42 260.39L484.69 261.58L484.91 262.79L485.08 264.02L485.21 265.26L485.29 266.51L485.31 267.78L485.31 427.5L485.29 428.77L485.21 430.02L485.08 431.26L484.91 432.48L484.69 433.69L484.42 434.88L484.1 436.05L483.75 437.21L483.34 438.34L482.9 439.45L482.41 440.55L481.88 441.61L481.31 442.66L480.71 443.68L480.06 444.67L479.38 445.64L478.67 446.58L477.92 447.49L477.13 448.37L476.31 449.22L475.46 450.04L474.58 450.82L473.67 451.57L472.73 452.29L471.77 452.97L470.77 453.61L469.75 454.22L468.71 454.79L467.64 455.31L466.55 455.8L465.44 456.25L464.3 456.65L463.15 457.01L461.98 457.32L460.79 457.59L459.58 457.81L458.36 457.99L457.12 458.11L455.86 458.19L454.6 458.22L441.44 458.22L441.44 567.56L441.42 568.44L441.37 569.32L441.28 570.18L441.16 571.04L441 571.88L440.82 572.71L440.6 573.53L440.34 574.34L440.06 575.13L439.75 575.91L439.41 576.68L439.04 577.42L438.64 578.15L438.22 578.87L437.77 579.56L437.29 580.24L436.79 580.9L436.26 581.53L435.71 582.15L435.14 582.74L434.54 583.32L433.93 583.87L433.29 584.39L432.63 584.89L431.96 585.37L431.26 585.82L430.55 586.25L429.82 586.64L429.07 587.01L428.31 587.35L427.53 587.67L426.74 587.95L425.93 588.2L425.11 588.42L424.28 588.61L423.43 588.76L422.58 588.89L421.71 588.97L420.84 589.03L419.95 589.05L65.36 589.05L64.48 589.03L63.6 588.97L62.73 588.89L61.88 588.76L61.03 588.61L60.2 588.42L59.38 588.2L58.57 587.95L57.78 587.67L57 587.35L56.24 587.01L55.49 586.64L54.76 586.25L54.05 585.82L53.35 585.37L52.68 584.89L52.02 584.39L51.38 583.87L50.77 583.32L50.17 582.74L49.6 582.15L49.05 581.53L48.52 580.9L48.02 580.24L47.55 579.56L47.09 578.87L46.67 578.15L46.27 577.42L45.9 576.68L45.56 575.91L45.25 575.13L44.97 574.34L44.72 573.53L44.5 572.71L44.31 571.88L44.15 571.04L44.03 570.18L43.94 569.32L43.89 568.44L43.87 567.56L43.87 458.21L30.72 458.21L29.45 458.19L28.2 458.11L26.96 457.99L25.73 457.81L24.53 457.59L23.34 457.32L22.16 457.01L21.01 456.65L19.87 456.25L18.76 455.8L17.67 455.31L16.6 454.78L15.56 454.22L14.54 453.61L13.54 452.97L12.58 452.29L11.64 451.57L10.73 450.82L9.85 450.03L9 449.21L8.18 448.36L7.39 447.48L6.64 446.57L5.93 445.63L5.25 444.67L4.6 443.67L4 442.65L3.43 441.61L2.9 440.54L2.41 439.45L1.97 438.34L1.57 437.2L1.21 436.05L0.89 434.87L0.62 433.68L0.4 432.48L0.23 431.25L0.1 430.01L0.03 428.76L0 427.5L0 267.77L0.03 266.5L0.1 265.25L0.23 264.01L0.4 262.79L0.62 261.58L0.89 260.39L1.21 259.22L1.57 258.06L1.97 256.93L2.41 255.81L2.9 254.72L3.43 253.65L4 252.61L4.6 251.59L5.25 250.6L5.93 249.63L6.64 248.69L7.39 247.78L8.18 246.9L9 246.05L9.85 245.23L10.73 244.45L11.64 243.7L12.58 242.98L13.54 242.3L14.54 241.66L15.56 241.05L16.6 240.48L17.67 239.96L18.76 239.47L19.87 239.02L21.01 238.62L22.16 238.26L23.34 237.95L24.53 237.68L25.73 237.46L26.96 237.28L28.2 237.16L29.45 237.08L30.72 237.06L43.87 237.06L43.87 62.54L43.89 61.65L43.94 60.78L44.03 59.91L44.15 59.06L44.31 58.21L44.5 57.38L44.72 56.56L44.97 55.75L45.25 54.96L45.56 54.18L45.9 53.42L46.27 52.67L46.67 51.94L47.09 51.23L47.55 50.53L48.02 49.85L48.52 49.2L49.05 48.56L49.6 47.94L50.17 47.35L50.77 46.78L51.38 46.23L52.02 45.7L52.68 45.2L53.35 44.72L54.05 44.27L54.76 43.85L55.49 43.45L56.24 43.08L57 42.74L57.78 42.43L58.57 42.14L59.38 41.89L60.2 41.67L61.03 41.48L61.88 41.33L62.73 41.21L63.6 41.12L64.48 41.06L65.36 41.05L325.03 41.05L325.09 41.05L325.15 41.05ZM65.36 561.73L419.95 561.73L419.95 458.22L65.36 458.22L65.36 561.73ZM238.23 258.51L235.54 258.7L232.9 258.97L230.32 259.31L227.8 259.72L225.35 260.2L222.95 260.75L220.62 261.37L218.35 262.05L216.14 262.8L213.99 263.62L211.92 264.49L209.9 265.43L207.96 266.43L206.08 267.48L204.27 268.59L202.53 269.76L200.86 270.98L199.25 272.25L197.72 273.58L196.26 274.95L194.88 276.38L193.56 277.85L192.32 279.36L191.16 280.92L190.07 282.53L189.06 284.17L188.12 285.86L187.26 287.59L186.48 289.35L185.78 291.15L185.15 292.99L184.61 294.85L184.15 296.75L183.78 298.69L183.48 300.65L183.27 302.64L183.14 304.65L183.1 306.7L183.13 308.43L183.23 310.13L183.39 311.8L183.61 313.44L183.9 315.05L184.24 316.62L184.65 318.17L185.12 319.69L185.64 321.17L186.23 322.63L186.87 324.06L187.57 325.46L188.33 326.83L189.14 328.17L190 329.48L190.92 330.77L191.89 332.03L192.92 333.26L193.99 334.46L195.12 335.64L196.29 336.79L197.52 337.92L198.79 339.02L200.12 340.09L201.48 341.14L202.9 342.17L204.36 343.17L205.87 344.14L207.41 345.09L209.01 346.02L210.64 346.93L212.32 347.81L214.03 348.67L215.79 349.5L217.59 350.31L219.42 351.11L221.3 351.88L223.21 352.62L225.15 353.35L227.14 354.06L228.56 354.57L229.94 355.09L231.28 355.59L232.58 356.1L233.83 356.6L235.04 357.1L236.21 357.6L237.34 358.1L238.43 358.6L239.48 359.09L240.48 359.59L241.45 360.09L242.38 360.59L243.27 361.1L244.12 361.6L244.94 362.11L245.71 362.63L246.45 363.15L247.15 363.67L247.82 364.2L248.45 364.73L249.04 365.27L249.6 365.82L250.12 366.37L250.61 366.93L251.07 367.51L251.49 368.08L251.88 368.67L252.23 369.27L252.55 369.88L252.84 370.5L253.1 371.14L253.32 371.78L253.52 372.44L253.68 373.11L253.81 373.79L253.91 374.49L253.99 375.2L254.03 375.92L254.05 376.67L254.03 377.45L253.98 378.21L253.9 378.96L253.78 379.7L253.63 380.42L253.45 381.13L253.24 381.82L253 382.5L252.72 383.16L252.41 383.81L252.07 384.43L251.69 385.04L251.29 385.64L250.85 386.22L250.38 386.77L249.88 387.31L249.34 387.84L248.78 388.34L248.18 388.83L247.56 389.29L246.9 389.74L246.21 390.16L245.49 390.57L244.74 390.95L243.95 391.32L243.14 391.66L242.3 391.98L241.42 392.28L240.52 392.56L239.58 392.81L238.62 393.04L237.62 393.25L236.59 393.44L235.54 393.6L234.45 393.74L233.33 393.85L232.19 393.94L231.01 394L229.81 394.04L228.57 394.05L227.41 394.04L226.25 394.02L225.1 393.97L223.95 393.91L222.8 393.83L221.65 393.73L220.51 393.62L219.38 393.49L218.25 393.35L217.13 393.2L216.01 393.02L214.9 392.84L213.79 392.64L212.7 392.43L211.61 392.21L210.53 391.98L209.46 391.73L208.4 391.47L207.35 391.21L206.31 390.93L205.28 390.65L204.26 390.35L203.25 390.05L202.26 389.74L201.27 389.42L200.3 389.09L199.35 388.76L198.4 388.42L197.47 388.08L196.56 387.73L195.66 387.38L194.78 387.02L193.91 386.65L193.06 386.29L192.23 385.92L191.41 385.55L190.61 385.18L189.83 384.8L189.07 384.43L188.33 384.05L180.95 414.05L181.65 414.43L182.38 414.8L183.14 415.17L183.93 415.54L184.75 415.91L185.6 416.27L186.49 416.63L187.4 416.98L188.33 417.34L189.3 417.68L190.28 418.03L191.3 418.36L192.34 418.69L193.4 419.02L194.48 419.34L195.59 419.65L196.71 419.95L197.86 420.24L199.02 420.53L200.21 420.81L201.41 421.07L202.63 421.33L203.86 421.58L205.11 421.82L206.37 422.04L207.64 422.26L208.93 422.46L210.23 422.65L211.54 422.83L212.86 422.99L214.19 423.14L215.53 423.28L216.87 423.4L218.22 423.51L219.58 423.6L220.94 423.68L222.31 423.74L223.68 423.78L225.05 423.81L226.43 423.82L229.69 423.77L232.86 423.65L235.94 423.44L238.94 423.15L241.85 422.78L244.68 422.34L247.42 421.82L250.07 421.22L252.64 420.56L255.13 419.82L257.52 419.02L259.84 418.15L262.07 417.22L264.21 416.22L266.27 415.16L268.25 414.05L270.14 412.87L271.95 411.64L273.68 410.36L275.32 409.02L276.88 407.64L278.36 406.2L279.76 404.72L281.07 403.19L282.31 401.62L283.46 400.01L284.53 398.36L285.52 396.67L286.43 394.94L287.26 393.18L288.01 391.38L288.68 389.56L289.27 387.71L289.78 385.82L290.21 383.92L290.56 381.99L290.83 380.03L291.03 378.06L291.14 376.07L291.18 374.06L291.16 372.38L291.08 370.72L290.96 369.1L290.78 367.5L290.56 365.94L290.28 364.4L289.95 362.88L289.57 361.4L289.14 359.94L288.66 358.51L288.12 357.1L287.54 355.73L286.9 354.37L286.21 353.04L285.47 351.74L284.68 350.46L283.83 349.2L282.93 347.97L281.98 346.76L280.98 345.58L279.92 344.41L278.81 343.27L277.64 342.16L276.43 341.06L275.15 339.99L273.83 338.93L272.45 337.9L271.01 336.89L269.53 335.9L267.98 334.92L266.39 333.97L264.73 333.04L263.03 332.12L261.26 331.22L259.45 330.34L257.57 329.48L255.65 328.64L253.66 327.81L251.62 327L249.52 326.21L247.99 325.63L246.5 325.05L245.06 324.49L243.66 323.94L242.3 323.4L240.98 322.87L239.7 322.34L238.47 321.82L237.28 321.31L236.13 320.8L235.02 320.29L233.96 319.79L232.93 319.29L231.95 318.8L231 318.3L230.1 317.8L229.23 317.3L228.4 316.8L227.62 316.3L226.87 315.79L226.16 315.28L225.49 314.76L224.86 314.24L224.27 313.71L223.71 313.17L223.2 312.63L222.72 312.07L222.27 311.51L221.87 310.93L221.5 310.34L221.16 309.74L220.87 309.12L220.61 308.49L220.38 307.84L220.19 307.18L220.03 306.5L219.91 305.8L219.83 305.08L219.78 304.35L219.76 303.59L219.77 302.97L219.82 302.35L219.89 301.74L219.99 301.13L220.12 300.53L220.28 299.94L220.46 299.36L220.68 298.78L220.92 298.21L221.2 297.66L221.5 297.11L221.83 296.57L222.19 296.05L222.58 295.53L223 295.03L223.45 294.54L223.92 294.07L224.43 293.61L224.97 293.16L225.53 292.73L226.13 292.31L226.75 291.91L227.41 291.53L228.09 291.16L228.8 290.81L229.55 290.48L230.32 290.17L231.12 289.88L231.95 289.61L232.82 289.36L233.71 289.13L234.63 288.92L235.58 288.74L236.56 288.57L237.57 288.44L238.62 288.32L239.69 288.23L240.79 288.17L241.92 288.13L243.09 288.11L244.26 288.12L245.41 288.15L246.55 288.19L247.67 288.24L248.78 288.31L249.87 288.4L250.94 288.5L252 288.61L253.04 288.73L254.06 288.87L255.07 289.01L256.06 289.17L257.03 289.34L257.98 289.52L258.92 289.71L259.84 289.9L260.75 290.11L261.64 290.32L262.51 290.54L263.36 290.76L264.19 290.99L265.01 291.23L265.81 291.47L266.59 291.71L267.36 291.96L268.1 292.21L268.83 292.47L269.54 292.72L270.24 292.98L270.91 293.24L271.57 293.5L272.21 293.75L272.83 294.01L273.43 294.27L274.02 294.52L274.58 294.77L275.13 295.02L275.66 295.26L276.17 295.5L276.66 295.74L284.74 266.46L284.02 266.13L283.29 265.82L282.54 265.5L281.77 265.19L281 264.87L280.2 264.57L279.39 264.26L278.57 263.96L277.73 263.67L276.88 263.38L276.01 263.09L275.12 262.81L274.22 262.54L273.31 262.27L272.38 262.01L271.43 261.75L270.47 261.5L269.49 261.26L268.5 261.02L267.49 260.79L266.46 260.57L265.42 260.36L264.36 260.16L263.29 259.97L262.2 259.78L261.09 259.61L259.97 259.45L258.83 259.29L257.67 259.15L256.49 259.02L255.3 258.89L254.09 258.78L252.87 258.69L251.62 258.6L250.36 258.53L249.09 258.46L247.79 258.42L246.48 258.38L245.15 258.36L243.8 258.35L240.99 258.39L238.23 258.51ZM118.49 258.58L114.95 258.86L111.45 259.26L108 259.77L104.59 260.39L101.24 261.12L97.95 261.96L94.71 262.91L91.53 263.97L88.41 265.14L85.37 266.41L82.39 267.8L79.48 269.29L76.64 270.88L73.89 272.58L71.21 274.39L68.62 276.3L66.11 278.32L63.69 280.43L61.36 282.65L59.13 284.98L56.99 287.4L54.95 289.93L53.01 292.55L51.18 295.28L49.45 298.1L47.84 301.02L46.34 304.04L44.95 307.16L43.69 310.38L42.54 313.69L41.52 317.1L40.63 320.6L39.87 324.2L39.24 327.89L38.74 331.67L38.38 335.55L38.17 339.52L38.09 343.58L38.15 346.98L38.31 350.35L38.58 353.66L38.95 356.93L39.43 360.15L40.02 363.31L40.71 366.42L41.51 369.47L42.41 372.47L43.42 375.4L44.54 378.26L45.76 381.07L47.09 383.8L48.52 386.46L50.06 389.05L51.7 391.57L53.45 394.01L55.3 396.37L57.25 398.64L59.31 400.84L61.48 402.95L63.74 404.97L66.11 406.9L68.59 408.74L71.17 410.48L73.85 412.13L76.63 413.68L79.52 415.12L82.51 416.47L85.6 417.71L88.8 418.84L92.09 419.86L95.49 420.77L98.99 421.57L102.6 422.24L106.3 422.8L110.11 423.24L114.02 423.56L118.03 423.75L122.14 423.82L123.59 423.81L125.03 423.79L126.45 423.76L127.85 423.71L129.24 423.66L130.6 423.59L131.95 423.51L133.28 423.42L134.58 423.32L135.87 423.21L137.14 423.09L138.38 422.95L139.61 422.81L140.81 422.67L141.99 422.51L143.15 422.34L144.28 422.17L145.39 421.99L146.48 421.8L147.55 421.61L148.59 421.41L149.61 421.21L150.6 420.99L151.57 420.78L152.51 420.56L153.42 420.33L154.31 420.1L155.17 419.87L156.01 419.63L156.82 419.39L157.6 419.15L158.35 418.9L159.08 418.66L159.77 418.41L160.44 418.16L161.07 417.91L161.68 417.66L162.26 417.4L162.81 417.15L163.32 416.9L157.84 388.57L157.3 388.78L156.73 389L156.15 389.21L155.56 389.41L154.94 389.62L154.31 389.82L153.67 390.02L153.01 390.21L152.33 390.41L151.64 390.59L150.94 390.78L150.23 390.96L149.51 391.14L148.77 391.31L148.02 391.48L147.27 391.65L146.5 391.81L145.73 391.96L144.94 392.12L144.15 392.26L143.36 392.4L142.55 392.53L141.74 392.66L140.93 392.79L140.11 392.9L139.28 393.01L138.45 393.12L137.62 393.22L136.79 393.31L135.95 393.39L135.11 393.47L134.28 393.54L133.44 393.6L132.6 393.65L131.76 393.7L130.93 393.74L130.1 393.77L129.27 393.79L128.44 393.8L127.62 393.81L125.21 393.77L122.86 393.66L120.56 393.47L118.31 393.21L116.11 392.87L113.96 392.47L111.87 391.99L109.83 391.44L107.85 390.83L105.92 390.14L104.04 389.39L102.22 388.57L100.46 387.68L98.76 386.73L97.11 385.71L95.52 384.63L93.99 383.48L92.52 382.27L91.11 381L89.76 379.67L88.47 378.28L87.24 376.83L86.07 375.32L84.96 373.75L83.92 372.13L82.94 370.45L82.03 368.71L81.17 366.92L80.39 365.08L79.67 363.18L79.01 361.23L78.43 359.22L77.91 357.17L77.45 355.07L77.07 352.91L76.75 350.71L76.51 348.46L76.33 346.16L76.22 343.82L76.19 341.43L76.23 338.79L76.35 336.22L76.56 333.71L76.84 331.27L77.21 328.9L77.64 326.6L78.16 324.37L78.74 322.2L79.4 320.11L80.13 318.08L80.93 316.12L81.8 314.22L82.73 312.4L83.73 310.64L84.79 308.95L85.91 307.33L87.09 305.77L88.33 304.28L89.62 302.86L90.97 301.51L92.38 300.22L93.84 299L95.35 297.85L96.91 296.76L98.51 295.74L100.17 294.79L101.87 293.9L103.61 293.08L105.39 292.32L107.22 291.63L109.08 291.01L110.98 290.45L112.92 289.96L114.89 289.54L116.9 289.18L118.93 288.89L121 288.66L123.1 288.49L125.22 288.4L127.37 288.36L128.33 288.37L129.27 288.38L130.21 288.41L131.14 288.45L132.06 288.49L132.97 288.55L133.87 288.61L134.76 288.68L135.64 288.77L136.51 288.86L137.37 288.96L138.22 289.06L139.06 289.18L139.89 289.3L140.71 289.43L141.52 289.56L142.32 289.71L143.11 289.86L143.89 290.01L144.66 290.18L145.42 290.34L146.16 290.52L146.9 290.69L147.63 290.88L148.35 291.07L149.05 291.26L149.75 291.46L150.43 291.66L151.11 291.86L151.78 292.07L152.43 292.28L153.07 292.5L153.71 292.72L154.33 292.94L154.94 293.16L155.54 293.38L156.13 293.61L156.71 293.84L157.28 294.07L157.84 294.3L165.23 265.5L164.73 265.25L164.21 264.99L163.65 264.74L163.07 264.49L162.46 264.23L161.82 263.98L161.15 263.73L160.45 263.47L159.73 263.22L158.98 262.97L158.21 262.73L157.41 262.48L156.58 262.24L155.73 262.01L154.86 261.77L153.95 261.54L153.03 261.32L152.08 261.1L151.1 260.88L150.11 260.67L149.09 260.47L148.04 260.28L146.98 260.09L145.89 259.91L144.78 259.73L143.65 259.57L142.49 259.41L141.32 259.27L140.12 259.13L138.91 259L137.67 258.88L136.42 258.78L135.14 258.68L133.85 258.6L132.54 258.52L131.21 258.46L129.86 258.42L128.49 258.38L127.1 258.36L125.7 258.35L122.08 258.41L118.49 258.58ZM353.57 421.43L395.95 421.43L450 260.98L411.42 260.98L390.95 329.54L390.54 330.91L390.13 332.29L389.72 333.67L389.32 335.06L388.92 336.44L388.52 337.83L388.12 339.22L387.72 340.62L387.33 342.01L386.94 343.41L386.55 344.81L386.16 346.22L385.78 347.62L385.39 349.03L385.01 350.44L384.64 351.85L384.26 353.26L383.89 354.67L383.52 356.09L383.15 357.51L382.79 358.93L382.43 360.35L382.07 361.78L381.71 363.2L381.36 364.63L381.01 366.06L380.66 367.49L380.31 368.92L379.97 370.35L379.64 371.79L379.3 373.22L378.97 374.66L378.64 376.1L378.31 377.54L377.99 378.98L377.67 380.42L377.36 381.86L377.04 383.31L376.74 384.75L376.43 386.2L375.72 386.2L375.43 384.7L375.14 383.21L374.84 381.73L374.54 380.25L374.24 378.77L373.93 377.3L373.61 375.84L373.29 374.38L372.97 372.93L372.65 371.48L372.32 370.03L371.99 368.59L371.65 367.15L371.31 365.71L370.97 364.28L370.62 362.85L370.27 361.42L369.91 360L369.56 358.58L369.2 357.16L368.83 355.74L368.47 354.32L368.1 352.9L367.73 351.49L367.35 350.08L366.97 348.66L366.59 347.25L366.21 345.84L365.82 344.43L365.44 343.02L365.05 341.6L364.65 340.19L364.26 338.78L363.86 337.36L363.46 335.94L363.06 334.53L362.65 333.11L362.25 331.68L361.84 330.26L361.43 328.83L341.91 260.98L302.15 260.98L353.57 421.43ZM65.36 237.06L419.95 237.06L419.95 183.23L325.03 183.23L324.59 183.22L324.15 183.19L323.71 183.15L323.29 183.09L322.86 183.01L322.45 182.92L322.04 182.81L321.63 182.68L321.24 182.54L320.85 182.38L320.47 182.21L320.09 182.03L319.73 181.83L319.37 181.62L319.02 181.39L318.68 181.16L318.36 180.91L318.04 180.64L317.73 180.37L317.43 180.08L317.15 179.79L316.87 179.48L316.61 179.16L316.36 178.83L316.12 178.49L315.89 178.14L315.68 177.79L315.48 177.42L315.3 177.05L315.13 176.67L314.97 176.28L314.83 175.88L314.71 175.48L314.6 175.07L314.5 174.65L314.42 174.23L314.36 173.8L314.32 173.37L314.29 172.93L314.28 172.48L314.28 62.54L65.36 62.54L65.36 237.06Z"></path>
      </g>
    </g>
  </g>
</svg>
