<?xml version="1.0" encoding="UTF-8" standalone="no"?>
<!DOCTYPE svg PUBLIC "-//W3C//DTD SVG 1.1//EN" "http://www.w3.org/Graphics/SVG/1.1/DTD/svg11.dtd">
<svg version="1.1" xmlns="http://www.w3.org/2000/svg" xmlns:xlink="http://www.w3.org/1999/xlink"
     preserveAspectRatio="xMidYMid meet" viewBox="0 0 640 640" width="640" height="640">
  <defs>
    <path d="M165.56 153.33L469.56 153.33L469.56 430.67L165.56 430.67L165.56 153.33Z" id="cnMDnbcSv"></path>
    <path
      d="M311.67 18.06L313.44 18.27L315.22 18.56L317 18.94L318.78 19.4L320.57 19.94L322.36 20.56L324.17 21.26L325.98 22.04L327.81 22.9L329.65 23.85L331.51 24.87L333.38 25.96L335.27 27.14L337.18 28.39L339.1 29.72L341.06 31.13L343.03 32.61L345.04 34.17L347.06 35.8L349.12 37.51L351.21 39.29L353.33 41.14L355.48 43.07L357.67 45.07L359.9 47.14L362.16 49.28L364.46 51.5L366.8 53.78L369.19 56.14L371.62 58.56L374.09 61.05L376.61 63.61L379.18 66.24L381.8 68.94L384.48 71.7L387.2 74.53L389.98 77.42L392.82 80.38L393.23 80.8L393.63 81.23L394.04 81.65L394.44 82.07L394.85 82.5L395.26 82.92L395.66 83.34L396.07 83.77L396.47 84.19L396.88 84.61L397.29 85.04L397.69 85.46L398.1 85.89L398.51 86.31L398.91 86.74L399.32 87.16L399.73 87.59L400.14 88.01L400.55 88.44L400.96 88.86L401.36 89.29L401.77 89.71L402.18 90.14L402.59 90.56L403 90.99L403.42 91.41L403.83 91.84L404.24 92.26L404.65 92.69L405.06 93.11L405.48 93.54L405.89 93.96L406.31 94.38L406.72 94.81L407.14 95.23L407.55 95.65L407.97 96.08L408.39 96.5L408.8 96.92L409.22 97.34L409.63 97.77L410.05 98.19L410.46 98.61L410.87 99.03L411.29 99.45L411.7 99.88L412.11 100.3L412.53 100.72L412.94 101.14L413.36 101.56L413.77 101.98L414.18 102.4L414.6 102.82L415.01 103.24L415.43 103.66L415.84 104.08L416.26 104.5L416.67 104.92L417.08 105.34L417.5 105.76L417.91 106.18L418.33 106.6L418.74 107.01L419.15 107.43L419.57 107.85L419.98 108.26L420.39 108.68L420.8 109.09L421.21 109.51L421.62 109.92L422.04 110.34L422.45 110.75L422.86 111.16L423.27 111.58L423.67 111.99L424.08 112.4L424.49 112.81L424.9 113.22L425.3 113.63L425.71 114.04L428.6 116.94L431.43 119.79L434.2 122.58L436.9 125.31L439.53 128L442.1 130.63L444.6 133.21L447.04 135.74L449.4 138.23L451.7 140.67L453.94 143.06L456.1 145.42L458.19 147.73L460.22 150.01L462.17 152.25L464.05 154.45L465.86 156.62L467.6 158.76L469.27 160.86L470.87 162.94L472.39 164.99L473.84 167.01L475.21 169.01L476.51 170.98L477.74 172.94L478.89 174.87L479.96 176.79L480.96 178.68L481.88 180.57L482.72 182.44L483.48 184.29L484.17 186.14L484.78 187.98L485.31 189.81L485.75 191.63L486.12 193.45L486.41 195.27L486.61 197.09L486.74 198.91L486.78 200.73L486.78 520.69L486.7 524.45L486.48 528.17L486.11 531.85L485.6 535.49L484.96 539.08L484.17 542.62L483.26 546.1L482.21 549.53L481.04 552.91L479.74 556.22L478.32 559.47L476.78 562.64L475.13 565.75L473.36 568.79L471.49 571.75L469.5 574.62L467.42 577.42L465.23 580.13L462.94 582.75L460.56 585.28L458.09 587.72L455.53 590.06L452.88 592.3L450.15 594.43L447.33 596.46L444.44 598.38L441.48 600.19L438.44 601.88L435.33 603.45L432.16 604.91L428.92 606.24L425.63 607.44L422.28 608.51L418.87 609.45L415.41 610.25L411.9 610.91L408.35 611.43L404.75 611.81L401.12 612.03L397.44 612.11L129.44 612.11L125.77 612.03L122.14 611.81L118.54 611.43L114.99 610.91L111.48 610.25L108.02 609.45L104.61 608.51L101.26 607.44L97.96 606.24L94.73 604.91L91.56 603.45L88.45 601.88L85.41 600.19L82.45 598.38L79.56 596.46L76.74 594.43L74.01 592.3L71.36 590.06L68.8 587.72L66.33 585.28L63.95 582.75L61.66 580.13L59.47 577.42L57.39 574.62L55.4 571.75L53.53 568.79L51.76 565.75L50.11 562.64L48.57 559.47L47.15 556.22L45.85 552.91L44.68 549.53L43.63 546.1L42.72 542.62L41.93 539.08L41.28 535.49L40.78 531.85L40.41 528.17L40.19 524.45L40.11 520.69L40.11 109.31L40.19 105.55L40.41 101.83L40.78 98.15L41.28 94.51L41.93 90.92L42.72 87.38L43.63 83.9L44.68 80.47L45.85 77.09L47.15 73.78L48.57 70.53L50.11 67.36L51.76 64.25L53.53 61.21L55.4 58.25L57.39 55.38L59.47 52.58L61.66 49.87L63.95 47.25L66.33 44.72L68.8 42.28L71.36 39.94L74.01 37.7L76.74 35.57L79.56 33.54L82.45 31.62L85.41 29.81L88.45 28.12L91.56 26.55L94.73 25.09L97.96 23.76L101.26 22.56L104.61 21.49L108.02 20.55L111.48 19.75L114.99 19.09L118.54 18.57L122.14 18.19L125.77 17.97L129.44 17.89L308.11 17.89L309.89 17.93L311.67 18.06ZM127.6 63.64L125.78 63.75L123.98 63.94L122.19 64.2L120.44 64.53L118.7 64.93L117 65.39L115.32 65.93L113.67 66.53L112.05 67.19L110.46 67.91L108.91 68.7L107.39 69.54L105.91 70.44L104.46 71.4L103.06 72.41L101.69 73.48L100.37 74.59L99.09 75.76L97.85 76.98L96.66 78.24L95.52 79.55L94.43 80.91L93.39 82.3L92.4 83.74L91.47 85.22L90.58 86.74L89.76 88.29L88.99 89.88L88.29 91.51L87.64 93.16L87.05 94.85L86.53 96.57L86.07 98.32L85.68 100.09L85.36 101.89L85.11 103.71L84.93 105.56L84.81 107.42L84.78 109.31L84.78 520.69L84.81 522.58L84.93 524.44L85.11 526.29L85.36 528.11L85.68 529.91L86.07 531.68L86.53 533.43L87.05 535.15L87.64 536.84L88.29 538.49L88.99 540.12L89.76 541.71L90.58 543.26L91.47 544.78L92.4 546.26L93.39 547.7L94.43 549.09L95.52 550.45L96.66 551.76L97.85 553.02L99.09 554.24L100.37 555.41L101.69 556.52L103.06 557.59L104.46 558.6L105.91 559.56L107.39 560.46L108.91 561.3L110.46 562.09L112.05 562.81L113.67 563.47L115.32 564.07L117 564.61L118.7 565.07L120.44 565.47L122.19 565.8L123.98 566.06L125.78 566.25L127.6 566.36L129.44 566.4L397.44 566.4L399.29 566.36L401.11 566.25L402.91 566.06L404.69 565.8L406.45 565.47L408.18 565.07L409.89 564.61L411.57 564.07L413.22 563.47L414.84 562.81L416.43 562.09L417.98 561.3L419.5 560.46L420.98 559.56L422.43 558.6L423.83 557.59L425.2 556.52L426.52 555.41L427.8 554.24L429.04 553.02L430.22 551.76L431.37 550.45L432.46 549.09L433.5 547.7L434.49 546.26L435.42 544.78L436.3 543.26L437.13 541.71L437.9 540.12L438.6 538.49L439.25 536.84L439.84 535.15L440.36 533.43L440.81 531.68L441.2 529.91L441.53 528.11L441.78 526.29L441.96 524.44L442.07 522.58L442.11 520.69L442.11 223.58L442.07 221.92L441.95 220.33L441.74 218.83L441.46 217.41L441.1 216.06L440.67 214.79L440.17 213.59L439.6 212.46L438.96 211.4L438.26 210.41L437.49 209.47L436.67 208.61L435.78 207.8L434.84 207.04L433.84 206.35L432.8 205.7L431.7 205.11L430.55 204.57L429.36 204.07L428.12 203.62L426.84 203.21L425.52 202.84L424.17 202.51L422.78 202.21L421.35 201.96L419.9 201.73L418.41 201.53L416.9 201.36L415.37 201.22L413.81 201.1L412.23 201L410.63 200.92L409.02 200.86L407.39 200.81L405.75 200.77L404.1 200.75L402.44 200.74L400.78 200.73L399.11 200.73L397.44 200.73L330.44 200.73L329.53 200.71L328.62 200.65L327.72 200.56L326.83 200.43L325.95 200.26L325.09 200.06L324.24 199.83L323.4 199.56L322.57 199.26L321.77 198.93L320.97 198.56L320.2 198.17L319.44 197.75L318.7 197.29L317.97 196.81L317.27 196.31L316.59 195.77L315.92 195.21L315.28 194.63L314.66 194.02L314.07 193.39L313.5 192.73L312.95 192.05L312.43 191.35L311.93 190.63L311.47 189.9L311.02 189.14L310.61 188.36L310.23 187.56L309.87 186.75L309.55 185.93L309.25 185.08L308.99 184.22L308.76 183.35L308.57 182.47L308.4 181.57L308.28 180.66L308.19 179.74L308.13 178.81L308.11 177.87L308.11 108.24L308.11 106.72L308.11 105.2L308.11 103.68L308.1 102.17L308.09 100.67L308.07 99.17L308.05 97.68L308.01 96.21L307.96 94.74L307.9 93.29L307.82 91.85L307.73 90.43L307.62 89.03L307.49 87.65L307.34 86.28L307.17 84.95L306.97 83.63L306.75 82.34L306.5 81.08L306.22 79.85L305.92 78.64L305.58 77.47L305.2 76.33L304.79 75.23L304.35 74.16L303.87 73.13L303.34 72.14L302.78 71.19L302.17 70.28L301.52 69.42L300.83 68.6L300.08 67.83L299.29 67.1L298.45 66.43L297.55 65.8L296.6 65.23L295.6 64.72L294.53 64.26L293.41 63.85L292.23 63.51L129.44 63.6L127.6 63.64Z"
      id="exX1RLteZ"></path>
    <path
      d="M625.45 339.27L564.03 189.08L503.97 339.82L542.48 339.65L543.2 499.23L587.77 499.02L587.05 339.45L625.45 339.27Z"
      id="bQpX4Suj1"></path>
    <text id="a5GkHqTlct" x="196.73" y="255.87" font-size="156" font-family="Open Sans" font-weight="700"
          font-style="normal" letter-spacing="0" alignment-baseline="before-edge"
          transform="matrix(1 0 0 1 -84.7621410741117 -12)" style="line-height:100%" xml:space="preserve"
          dominant-baseline="text-before-edge"><tspan x="196.73" dy="0em" alignment-baseline="before-edge" dominant-baseline="text-before-edge" text-anchor="start">.PO</tspan></text>
  </defs>
  <g>
    <g>
      <g>
        <use xlink:href="#exX1RLteZ" ></use>
        <g>
          <use xlink:href="#exX1RLteZ" stroke-width="1"
               stroke-opacity="0"></use>
        </g>
      </g>
      <g>
        <use xlink:href="#bQpX4Suj1"></use>
      </g>
      <g id="b3xr2rCG26">
        <use xlink:href="#a5GkHqTlct"></use>
      </g>
    </g>
  </g>
</svg>
